<svg version="1.1" style="display: inline-block; vertical-align: text-top;"
      xmlns="http://www.w3.org/2000/svg" xmlns:xlink="http://www.w3.org/1999/xlink" xmlns:a="http://ns.adobe.com/AdobeSVGViewerExtensions/3.0/"
      x="0px" y="0px" width="25px" height="21px" xml:space="preserve" viewBox="0 0 740 627">
    <path fill="#ffffff" d="M413,0c99,0,198,0,297,0c15.6,4.5,26.3,11.5,32,24c6.5,14.1,4,44.7,4,69c0,146.5,0,290.2,0,438
        c0,23,3.2,52.6-3,69c-3.4,9.1-13.7,19.4-22,23c-16,6.9-53.2,3-78,3c-56.2,0-104.6,0-162,0c-23.9,0-60.7,4.3-78-2
        c-13.5-4.9-21.2-17.5-26-33c0-185,0-370,0-555C381.4,16.4,393.4,4.4,413,0z M661,70c-51.6,0-104.2,0-155,0c-22.2,0-45.9-2.9-63,0
        c-3.1,0.5-4.6,3-7,4c2.1,6.9,9,10.8,14,15c37.8,31.5,74.2,63.4,112,94c31.2-27,63-54.2,94-80c10.7-8.9,22.1-17.4,31-28
        C680.9,67.7,669.8,70,661,70z M675,157c-24.9,20.5-48.4,40.1-73,61c-9.3,7.9-20.8,19.4-32,22c-22.5,5.3-34.8-10.3-49-22
        c-30.1-24.6-56.9-48.8-86-71c-0.1-1.1-1.3-0.8-1,1c0,100.5,0,211.7,0,316c0,14.7-1.6,38.4,3,43c7.4,7.4,45.2,3,60,3
        c49,0,78.1,0,126,0c15.8,0,52,4.1,61-2c6.5-4.4,5-24.2,5-40c0-110.6,0-216,0-321C683.3,148.1,679.4,153.4,675,157z M567,592
        c27.2-8.6,20.9-55.9-13-51C516.8,546.4,530.8,603.5,567,592z"/>
    <path fill-rule="evenodd" clip-rule="evenodd" fill="#ffffff" d="
        M7.673,244.015c61.896-3.124,128.917-0.447,192.784-1.339c0,0.447,0,0.894,0,1.339C136.196,244.015,71.936,244.015,7.673,244.015z"
        />
    <path fill-rule="evenodd" clip-rule="evenodd" fill="#ffffff" d="
        M6.491,244.015c0.394,0,0.788,0,1.183,0c0,47.772,0,95.544,0,143.316c-0.395,0-0.789,0-1.183,0
        C6.491,339.559,6.491,291.787,6.491,244.015z"/>
    <path fill-rule="evenodd" clip-rule="evenodd" fill="#ffffff" d="
        M7.673,387.331c64.262,0,128.522,0,192.784,0c0,0.446,0,0.892,0,1.339C136.591,387.777,69.569,390.456,7.673,387.331z"/>
    <path fill-rule="evenodd" clip-rule="evenodd" fill="#ffffff" d="
        M202.822,169.009c58.222,47.913,114.105,98.477,172.678,145.994c0,0.446,0,0.893,0,1.339
        c-58.803,48.149-115.352,98.851-173.861,147.335c-0.785-25.006,1.576-53.574-1.182-76.347c-64.261,0-128.521,0-192.784,0
        c0-47.772,0-95.544,0-143.316c64.262,0,128.522,0,192.784,0c0.395,0,0.788,0,1.182,0
        C202.427,219.457,200.064,191.334,202.822,169.009z"/>
    <path fill-rule="evenodd" clip-rule="evenodd" fill="#ffffff" d="
        M200.457,465.015c0-25.448,0-50.896,0-76.345c0-0.447,0-0.893,0-1.339c2.758,22.772,0.396,51.341,1.182,76.347
        c0,0.445,0,0.892,0,1.337C201.245,465.015,200.852,465.015,200.457,465.015z"/>
    <path fill-rule="evenodd" clip-rule="evenodd" fill="#ffffff"  d="
        M201.639,166.33c-0.002,1.343,0.959,1.594,1.184,2.68c-2.758,22.325-0.396,50.448-1.184,75.005c-0.394,0-0.787,0-1.182,0
        c0-0.446,0-0.893,0-1.339c0-25.448,0-50.897,0-76.346C200.852,166.33,201.245,166.33,201.639,166.33z"/>
</svg>