<?xml version="1.0" encoding="utf-8"?>
<!-- Generator: Adobe Illustrator 15.1.0, SVG Export Plug-In  -->
<!DOCTYPE svg PUBLIC "-//W3C//DTD SVG 1.1//EN" "http://www.w3.org/Graphics/SVG/1.1/DTD/svg11.dtd" [
	<!ENTITY ns_flows "http://ns.adobe.com/Flows/1.0/">
]>
<svg version="1.1"
	 xmlns="http://www.w3.org/2000/svg" xmlns:xlink="http://www.w3.org/1999/xlink" xmlns:a="http://ns.adobe.com/AdobeSVGViewerExtensions/3.0/"
	 x="0px" y="0px" width="370px" height="627px" viewBox="0 0 370 627" enable-background="new 0 0 370 627" xml:space="preserve">
<defs>
</defs>
<path fill-rule="evenodd" clip-rule="evenodd" fill="#F37021" d="M36,0c99,0,198,0,297,0c15.6,4.5,26.3,11.5,32,24
	c6.5,14.1,4,44.7,4,69c0,146.5,0,290.2,0,438c0,23,3.2,52.6-3,69c-3.4,9.1-13.7,19.4-22,23c-16,6.9-53.2,3-78,3
	c-56.2,0-104.6,0-162,0c-23.9,0-60.7,4.3-78-2c-13.5-4.9-21.2-17.5-26-33C0,406,0,221,0,36C4.4,16.4,16.4,4.4,36,0z M284,70
	c-51.6,0-104.2,0-155,0c-22.2,0-45.9-2.9-63,0c-3.1,0.5-4.6,3-7,4c2.1,6.9,9,10.8,14,15c37.8,31.5,74.2,63.4,112,94
	c31.2-27,63-54.2,94-80c10.7-8.9,22.1-17.4,31-28C303.9,67.7,292.8,70,284,70z M298,157c-24.9,20.5-48.4,40.1-73,61
	c-9.3,7.9-20.8,19.4-32,22c-22.5,5.3-34.8-10.3-49-22c-30.1-24.6-56.9-48.8-86-71c-0.1-1.1-1.3-0.8-1,1c0,100.5,0,211.7,0,316
	c0,14.7-1.6,38.4,3,43c7.4,7.4,45.2,3,60,3c49,0,78.1,0,126,0c15.8,0,52,4.1,61-2c6.5-4.4,5-24.2,5-40c0-110.6,0-216,0-321
	C306.3,148.1,302.4,153.4,298,157z M190,592c27.2-8.6,20.9-55.9-13-51C139.8,546.4,153.8,603.5,190,592z"/>
</svg>
