<svg version="1.1"
	 xmlns="http://www.w3.org/2000/svg" xmlns:xlink="http://www.w3.org/1999/xlink" xmlns:a="http://ns.adobe.com/AdobeSVGViewerExtensions/3.0/"
	 x="0px" y="0px" width="750px" height="221px" viewBox="0 0 2128 627" enable-background="new 0 0 2128 627" xml:space="preserve">
	<path fill-rule="evenodd" clip-rule="evenodd" fill="#F37021" d="M36,0c99,0,198,0,297,0c15.6,4.5,26.3,11.5,32,24
		c6.5,14.1,4,44.7,4,69c0,146.5,0,290.2,0,438c0,23,3.2,52.6-3,69c-3.4,9.1-13.7,19.4-22,23c-16,6.9-53.2,3-78,3
		c-56.2,0-104.6,0-162,0c-23.9,0-60.7,4.3-78-2c-13.5-4.9-21.2-17.5-26-33C0,406,0,221,0,36C4.4,16.4,16.4,4.4,36,0z M284,70
		c-51.6,0-104.2,0-155,0c-22.2,0-45.9-2.9-63,0c-3.1,0.5-4.6,3-7,4c2.1,6.9,9,10.8,14,15c37.8,31.5,74.2,63.4,112,94
		c31.2-27,63-54.2,94-80c10.7-8.9,22.1-17.4,31-28C303.9,67.7,292.8,70,284,70z M298,157c-24.9,20.5-48.4,40.1-73,61
		c-9.3,7.9-20.8,19.4-32,22c-22.5,5.3-34.8-10.3-49-22c-30.1-24.6-56.9-48.8-86-71c-0.1-1.1-1.3-0.8-1,1c0,100.5,0,211.7,0,316
		c0,14.7-1.6,38.4,3,43c7.4,7.4,45.2,3,60,3c49,0,78.1,0,126,0c15.8,0,52,4.1,61-2c6.5-4.4,5-24.2,5-40c0-110.6,0-216,0-321
		C306.3,148.1,302.4,153.4,298,157z M190,592c27.2-8.6,20.9-55.9-13-51C139.8,546.4,153.8,603.5,190,592z"/>
	<path fill-rule="evenodd" clip-rule="evenodd" fill="#F37021" d="M1914,93c46.5-6.4,76.8,25,71,71c-3.7,29.1-28.3,50-60,50
		c-35.8,0-61.1-24.1-60-63c0.3-10,6.9-29.5,9-33C1880.7,106.8,1893.8,95.8,1914,93z M1893,177c10.6,17.5,43.9,21.6,59,7
		c11.3-10.9,16.3-34.6,7-53c-6-12-21.3-21.3-41-18C1891.4,117.5,1877.2,151,1893,177z"/>
	<path fill-rule="evenodd" clip-rule="evenodd" fill="#F37021" d="M516,177c0,11.3,0,22.7,0,34c-7.3,0-14.7,0-22,0
		c0.7-39-1.3-80.7,1-118c24.9,1.7,49.9-3,69,2c19.9,5.2,32.1,25.7,28,50c-3,17.5-18.7,30-39,32C542.2,178.1,529.5,176.2,516,177z
		 M558,155c16.3-5.8,16.3-33.2,0-39c-9.7-3.4-32,0.5-42-1c0,13.7,0,27.3,0,41C532.9,154,546.1,159.2,558,155z"/>
	<path fill-rule="evenodd" clip-rule="evenodd" fill="#F37021" d="M797,93c17.9,39.1,35.5,78.5,53,118c-8.3,0-16.7,0-25,0
		c-2.1-8.2-6.5-14.2-9-22c-20,0-40,0-60,0c-5,6-7.3,14.7-11,22c-8,0-16,0-24,0c17.1-39.9,34.5-79.5,53-118C781.7,93,789.3,93,797,93z
		 M764,168c14,0,28,0,42,0c-6.4-16.6-12.9-33.1-21-48C777.8,135.8,771,152,764,168z"/>
	<path fill-rule="evenodd" clip-rule="evenodd" fill="#F37021" d="M1055,169c4.6,7.9,11.1,14.3,17,21c5.9,6.6,13.1,12.5,17,21
		c-10.2-1.5-18.1,2.1-25,0c-7.4-2.3-12.9-14.2-18-20c-6.8-7.7-12.8-13.4-18-19c-6.7,0-13.3,0-20,0c0,13,0,26,0,39c-7.7,0-15.3,0-23,0
		c0-39,0-78,0-117c0.8-0.2,1-1,2-1c29.2,3.7,64.4-6.6,84,10C1091.2,120.1,1086.8,166.1,1055,169z M1057,146c9-10.3,4.6-25.1-6-30
		c-10.5-4.9-33.7-0.4-43-2c0,12.7,0,25.3,0,38C1026.9,150.6,1048.3,155.9,1057,146z"/>
	<path fill-rule="evenodd" clip-rule="evenodd" fill="#F37021" d="M1318,93c0,7,0,14,0,21c-12,0-24,0-36,0c-2.3,30.3-0.3,65-1,97
		c-7.3,0-14.7,0-22,0c0-32,0-64,0-96c-10.3-2.3-25-0.3-37-1c0-7,0-14,0-21C1254,93,1286,93,1318,93z"/>
	<path fill-rule="evenodd" clip-rule="evenodd" fill="#F37021" d="M1479,93c0,35.4,0,79.3,0,118c-7.3,0-14.7,0-22,0
		c0-38.3,0-76.7,0-115C1459.1,89.7,1472.1,94.5,1479,93z"/>
	<path fill-rule="evenodd" clip-rule="evenodd" fill="#F37021" d="M1625,93c58.9-5,103.2,5.7,104,58c0.5,32.4-19.5,56.7-49,60
		c-16,1.8-34.5-1.3-56,0c0-38.3,0-76.7,0-115C1623.9,94.6,1623.8,93.2,1625,93z M1684,188c24.8-7.4,32.9-56.3,4-70
		c-11.6-5.5-24.4-1.9-41-3c-2.3,22.7-0.3,49.7-1,74C1660.7,187.8,1673.9,191,1684,188z"/>
	<path fill-rule="evenodd" clip-rule="evenodd" fill="#F37021" d="M1154,295c-9.7,11.7-22.1,20.5-31,33c-19.6-14.6-43-29.7-80-27
		c-52.7,3.8-84,47-85,97c-1.1,54.4,32.9,91.7,86,95c32.1,2,51.3-6.5,70-23c0-15.7,0-31.3,0-47c-12.3,0-24.7,0-37,0
		c-2.3-13.4-0.4-31-1-46c28.3,0,56.7,0,85,0c0,28.3,0,55.6,0,85c0,9.3,1.9,20.2,0,28c-2.8,11.7-29.5,29.8-39,35
		c-14.1,7.7-36.9,14.7-58,16c-50.7,3.2-93.7-12.9-118-37c-25.7-25.5-41.4-65.6-38-117c2.6-38.9,18.7-71.7,41-94c23-23,56-39.5,99-40
		C1096.8,252.4,1126.3,271,1154,295z"/>
	<path fill-rule="evenodd" clip-rule="evenodd" fill="#F37021" d="M498,261c67.8,2.1,126.7-7.2,171,13c44.4,20.2,76.6,68.2,72,137
		c-4.5,67.2-47.5,113.2-112,122c-38.9,5.3-84.3,0.2-132,2c0-90.3,0-180.7,0-271C496.9,262.6,496.8,261.2,498,261z M548,313
		c0,57.3,0,114.7,0,172c42.6-0.8,78,4.3,104-11c45.7-26.9,50.5-110.8,10-145c-23.9-20.2-65.4-20.9-113-19
		C547.8,310.2,547.9,311.6,548,313z"/>
	<path fill-rule="evenodd" clip-rule="evenodd" fill="#F37021" d="M801,261c16.3,0,32.7,0,49,0c2.3,89.3,0.3,183,1,274
		c-17.3,0-34.7,0-52,0c0-90.3,0-180.7,0-271C799,262.3,799.7,261.4,801,261z"/>
	<path fill-rule="evenodd" clip-rule="evenodd" fill="#F37021" d="M1225,261c16.3,0,32.7,0,49,0c2.3,89.3,0.3,183,1,274
		c-17,0-34,0-51,0c-2.3-88.3-0.3-181-1-271C1223,262.3,1223.7,261.4,1225,261z"/>
	<path fill-rule="evenodd" clip-rule="evenodd" fill="#F37021" d="M1340,261c74.7,0,149.3,0,224,0c0,15.7,0,31.3,0,47
		c-28.7,0-57.3,0-86,0c0,75.7,0,151.3,0,227c-17.3,0-34.7,0-52,0c0-75.3,0-150.7,0-226c-27-2.3-58.3-0.3-87-1c0-14.7,0-29.3,0-44
		C1338.9,262.6,1338.8,261.2,1340,261z"/>
	<path fill-rule="evenodd" clip-rule="evenodd" fill="#F37021" d="M1711,261c18.3,0,36.7,0,55,0c41.1,90.9,81.2,182.8,123,273
		c-17,2.3-38.3,0.3-57,1c-7-18-15.1-34.9-23-52c-47.3,0-94.7,0-142,0c-8.7,16.7-16.1,34.6-24,52c-18.7,0-37.3,0-56,0
		c40.6-90.4,80.7-181.3,122-271C1709,262.3,1709.7,261.4,1711,261z M1687,435c33.7,0,67.3,0,101,0c-16-39-32.9-77.1-50-115
		C1720.1,357.5,1704.4,397.1,1687,435z"/>
	<path fill-rule="evenodd" clip-rule="evenodd" fill="#F37021" d="M2128,487c0,16,0,32,0,48c-63.7-0.7-130,1.3-192-1
		c0.7-90.7-1.3-184,1-273c16.3,0.7,35.3-1.3,50,1c0,75,0,150,0,225C2034,487,2081,487,2128,487z"/>
</svg>
